# xmcd CD database file generated by Grip 3.3.1
# 
# Track frame offsets:
#       182
#       40232
#       78407
#       109157
#       157682
#       177295
#       222407
#       267032
#       296925
# 
# Disc length: 4448 seconds
# 
# Revision: 6
# Processed by: cddbd v1.5.2PL0 Copyright (c) Steve Scherf et al.
# Submitted via: Grip 3.3.1
# 
DISCID=7a115e09
DTITLE=Alfred Brendel - Beethoven Favourite Piano Sonatas CD2
DYEAR=1993
DGENRE=Classical
TTITLE0=No. 17 in D Minor Op. 31 No. 2 (The Tempest) - Largo
TTITLE1=No. 17 in D Minor Op. 31 No. 2 (The Tempest) - Adagio
TTITLE2=No. 17 in D Minor Op. 31 No. 2 (The Tempest) - Allegretto
TTITLE3=No. 21 in C Op. 53 (Waldstein) - Allegro con brio
TTITLE4=No. 21 in C Op. 53 (Waldstein) - Introduzione
TTITLE5=No. 21 in C Op. 53 (Waldstein) - Rondo
TTITLE6=No. 23 in F Minor Op. 57 (Apassionata) - Allegro assai
TTITLE7=No. 23 in F Minor Op. 57 (Apassionata) - Andante con moto
TTITLE8=No. 23 in F Minor Op. 57 (Apassionata) - Allegro ma non troppo
EXTD=
EXTT0=
EXTT1=
EXTT2=
EXTT3=
EXTT4=
EXTT5=
EXTT6=
EXTT7=
EXTT8=
PLAYORDER=
